<svg fill="#ffffff" xmlns="http://www.w3.org/2000/svg" viewBox="0 0 24 24"
     class="rds-icon rds-icon--Boat transport-icon_icon__sp3f0" aria-hidden="true" focusable="false">
    <path fill-rule="evenodd" clip-rule="evenodd"
          d="M8.99001 15.0017C7.04001 15.0017 6.01001 15.4417 5.10001 15.8317C4.52379 16.0809 4.00215 16.3058 3.22819 16.4215C2.88015 16.4735 2.62037 16.1314 2.73188 15.7976L3.8859 12.3433C3.95405 12.1392 4.14504 12.0017 4.36014 12.0017H5.63986C5.85496 12.0017 6.04596 11.8641 6.11411 11.6601L7.44182 7.68489C7.57811 7.27684 7.9601 7.00169 8.39031 7.00169H12V6.3107C12 6.12132 12.107 5.94819 12.2764 5.86349L15.2764 4.36349C15.6089 4.19726 16 4.43901 16 4.8107V6.00169H17.2793C17.7097 6.00169 18.0918 6.27712 18.2279 6.68546L19.7721 11.3179C19.9082 11.7263 20.2903 12.0017 20.7208 12.0017H22.3056C22.6471 12.0017 22.8881 12.3364 22.7798 12.6603L22.0836 14.7419C22.0207 14.9301 21.8519 15.062 21.655 15.0868C20.5216 15.2292 19.7773 15.5388 19.1 15.8317L19.0946 15.834C18.2569 16.193 17.5367 16.5017 15.99 16.5017C14.4433 16.5017 13.7231 16.193 12.8854 15.834L12.88 15.8317C11.98 15.4417 10.95 15.0017 8.99001 15.0017ZM17.3063 12.0017C17.6476 12.0017 17.8886 11.6673 17.7806 11.3436L17.114 9.34357C17.0459 9.1394 16.8548 9.00169 16.6396 9.00169H15V12.0017H17.3063ZM14 9.00169H9.36039C9.14517 9.00169 8.95411 9.1394 8.88605 9.34357L8.21938 11.3436C8.11146 11.6673 8.35245 12.0017 8.69372 12.0017H14V9.00169Z"
          fill="#ffffff"></path>
    <path d="M19.0946 17.834L19.1 17.8317C19.5097 17.6542 19.9427 17.472 20.4754 17.3233C20.8393 17.2218 21.1449 17.5752 21.0249 17.9334L20.6051 19.1874C20.5576 19.3294 20.4487 19.4422 20.31 19.4986C20.2343 19.5293 20.1581 19.5609 20.0811 19.5928C20.0181 19.6189 19.9545 19.6453 19.89 19.6717C18.98 20.0617 17.95 20.5017 15.99 20.5017C14.04 20.5017 13.01 20.0617 12.1 19.6717C11.26 19.3117 10.53 19.0017 8.99 19.0017C7.45332 19.0017 6.73311 19.3104 5.89543 19.6694L5.89 19.6717C4.98 20.0617 3.95 20.5017 2 20.5017C1.93829 20.5017 1.87785 20.5013 1.8186 20.5004C1.49366 20.4958 1.27988 20.1736 1.38311 19.8654L1.7257 18.8429C1.79398 18.639 1.98502 18.5032 2.19979 18.4947C3.21976 18.4548 4.14341 18.2417 5.1 17.8317C6.01 17.4417 7.04 17.0017 8.99 17.0017C10.95 17.0017 11.98 17.4417 12.88 17.8317C13.72 18.1917 14.45 18.5017 15.99 18.5017C17.5367 18.5017 18.2569 18.193 19.0946 17.834Z"
          fill="#ffffff"></path>
</svg>